<?xml version="1.0" encoding="utf-8" ?>
<svg baseProfile="full" height="298px" version="1.1" viewBox="0 0 305 298" width="305px" xmlns="http://www.w3.org/2000/svg" xmlns:ev="http://www.w3.org/2001/xml-events" xmlns:xlink="http://www.w3.org/1999/xlink"><defs /><path d="M140.20,261.80C138.32,259.92,138.78,257.55,141.54,254.96C143.50,253.12,144.47,252.81,145.73,253.60C146.63,254.17,147.83,255.37,148.40,256.27C149.19,257.53,148.88,258.50,147.04,260.46C144.45,263.22,142.08,263.68,140.20,261.80ZM152.17,258.69C150.98,257.41,150.00,255.82,150.00,255.15C150.00,254.48,148.47,253.03,146.61,251.93C144.74,250.83,142.98,249.05,142.70,247.98C142.42,246.90,140.97,245.56,139.48,244.99C137.99,244.42,135.51,242.62,133.98,240.98C130.91,237.70,127.01,237.08,124.96,239.55C124.26,240.40,122.43,241.98,120.90,243.07C118.13,245.04,118.13,245.04,109.69,241.14C98.39,235.92,90.09,230.19,80.65,221.08C71.66,212.39,64.11,202.10,58.05,190.27C53.84,182.04,53.84,182.04,55.87,179.18C56.99,177.61,58.65,175.70,59.57,174.95C62.69,172.35,79.00,153.07,79.00,151.96C79.00,151.36,76.98,148.38,74.50,145.34C72.03,142.30,70.00,139.03,70.00,138.06C70.00,136.33,72.92,133.00,74.45,133.00C74.89,133.00,79.01,136.68,83.62,141.18C90.26,147.66,92.00,149.95,92.00,152.21C92.00,155.59,88.94,161.87,82.61,171.50C80.04,175.40,78.00,179.68,78.00,181.17C78.00,184.52,86.13,196.80,93.19,204.09C98.82,209.90,112.55,219.60,116.59,220.61C118.52,221.10,120.99,219.71,129.05,213.61C134.58,209.42,139.89,206.00,140.86,206.00C141.83,206.00,143.45,206.61,144.47,207.35C146.20,208.62,145.92,209.13,140.16,215.33C133.46,222.53,132.54,225.54,136.00,229.00C139.18,232.18,143.11,231.54,148.26,227.00C150.76,224.80,153.41,223.00,154.15,223.01C154.89,223.02,157.53,224.62,160.00,226.57C166.17,231.45,179.00,243.94,179.00,245.07C179.00,246.26,175.28,250.00,174.11,250.00C173.62,250.00,169.28,246.62,164.45,242.49C159.63,238.36,155.42,235.25,155.09,235.59C154.77,235.92,158.00,239.42,162.27,243.35C166.54,247.28,170.03,250.99,170.02,251.60C169.98,253.58,166.21,256.20,164.32,255.57C163.32,255.23,159.35,252.05,155.50,248.49C148.92,242.42,145.89,240.40,147.65,243.25C148.08,243.94,151.03,246.91,154.21,249.86C159.99,255.21,161.06,257.54,158.80,259.80C156.96,261.64,154.57,261.24,152.17,258.69ZM131.65,256.17C130.74,255.17,130.00,253.95,130.00,253.48C130.00,251.91,135.34,247.00,137.03,247.00C137.94,247.00,139.51,247.91,140.52,249.02C142.31,251.00,142.27,251.12,138.98,254.52C137.12,256.43,135.09,258.00,134.46,258.00C133.83,258.00,132.57,257.18,131.65,256.17ZM124.16,250.40C122.97,249.57,122.00,248.09,122.00,247.12C122.00,244.79,126.10,241.00,128.61,241.00C131.02,241.00,133.00,242.82,133.00,245.03C133.00,246.52,130.05,249.84,127.41,251.31C126.82,251.64,125.35,251.23,124.16,250.40ZM178.43,239.33C170.09,231.60,155.28,219.00,154.54,219.00C154.19,219.00,151.21,221.25,147.90,224.00C144.60,226.75,141.31,229.00,140.60,229.00C138.44,229.00,135.77,225.31,136.43,223.23C136.76,222.17,140.58,217.87,144.90,213.66C149.76,208.93,153.59,206.00,154.92,206.00C157.67,206.00,164.93,209.69,174.61,216.01C178.81,218.75,183.03,221.00,183.97,221.00C186.06,221.00,196.65,214.26,203.10,208.82C209.36,203.54,216.20,194.88,219.94,187.50C223.03,181.39,223.76,177.59,222.04,176.53C221.52,176.20,218.37,172.28,215.04,167.82C210.52,161.74,209.00,158.87,209.00,156.41C209.00,154.60,209.49,152.81,210.10,152.44C210.71,152.06,213.72,154.24,216.85,157.32C219.96,160.37,223.74,163.18,225.26,163.55C227.09,163.99,228.85,163.67,230.51,162.59C232.34,161.38,233.00,160.07,233.00,157.61C233.00,155.19,231.85,152.82,228.86,149.07C225.04,144.27,224.83,143.69,226.05,141.40C227.96,137.84,245.94,119.00,247.43,119.00C248.95,119.00,252.00,122.21,252.00,123.80C252.00,124.42,248.63,128.85,244.51,133.65C240.40,138.44,237.28,142.62,237.60,142.93C237.91,143.24,241.43,140.01,245.42,135.75C249.42,131.49,253.14,128.00,253.69,128.00C255.00,128.00,258.00,131.34,258.00,132.80C258.00,133.42,255.02,137.35,251.39,141.52C247.75,145.69,245.02,149.36,245.33,149.67C245.64,149.98,248.44,147.48,251.55,144.11C254.67,140.75,258.01,138.00,258.99,138.00C261.27,138.00,263.26,140.42,262.83,142.67C262.64,143.64,260.58,145.72,258.24,147.28C255.91,148.85,254.00,150.73,254.00,151.47C254.00,152.20,252.43,153.73,250.50,154.87C248.39,156.11,247.00,157.71,247.00,158.90C247.00,159.98,245.65,161.83,244.00,163.00C241.61,164.70,241.00,165.87,241.00,168.77C241.00,171.50,241.79,173.22,244.19,175.69C247.38,178.98,247.38,178.98,245.29,184.24C244.14,187.13,242.73,190.94,242.17,192.70C240.25,198.67,229.87,212.85,221.63,220.76C212.77,229.27,204.67,235.17,195.38,239.88C184.36,245.48,185.09,245.50,178.43,239.33ZM140.95,176.05C136.93,174.83,130.59,170.49,127.51,166.84C122.88,161.37,120.71,155.32,120.71,147.93C120.71,135.97,127.40,125.64,138.50,120.48C146.12,116.93,155.46,116.77,160.89,120.08C164.28,122.14,164.28,122.14,159.43,127.07C155.34,131.22,153.99,132.00,150.85,132.00C146.00,132.00,142.15,133.51,138.77,136.73C135.17,140.16,133.64,145.09,134.46,150.57C135.80,159.52,145.60,165.61,154.46,163.00C162.20,160.73,166.85,153.69,165.63,146.09C165.08,142.66,165.40,142.03,169.95,137.55C174.86,132.72,174.86,132.72,176.88,136.04C177.99,137.87,179.19,141.71,179.55,144.58C181.18,157.63,171.65,172.09,158.89,175.92C154.80,177.14,144.79,177.22,140.95,176.05ZM50.69,174.21C49.76,173.18,49.00,171.70,49.00,170.91C49.00,170.12,52.15,165.89,56.00,161.50C62.37,154.24,64.34,151.27,62.20,152.17C61.76,152.35,58.76,155.43,55.52,159.00C52.29,162.57,48.84,165.90,47.85,166.39C45.56,167.53,43.00,165.54,43.01,162.63C43.01,161.43,45.88,157.28,49.56,153.14C53.17,149.09,55.83,145.50,55.49,145.16C55.15,144.82,52.31,147.39,49.19,150.87C44.61,155.97,43.01,157.14,41.00,156.85C38.89,156.55,38.50,155.97,38.50,153.07C38.50,150.07,39.01,149.37,42.50,147.56C45.13,146.20,46.61,144.70,46.83,143.17C47.05,141.65,48.18,140.49,50.09,139.82C51.81,139.22,53.25,137.86,53.59,136.51C53.90,135.25,55.48,132.96,57.08,131.42C60.94,127.73,60.89,124.08,56.92,119.56C53.98,116.21,53.89,115.86,55.06,112.27C55.74,110.20,57.66,106.03,59.32,103.00C73.56,77.15,97.39,57.02,121.50,50.46C124.80,49.57,128.13,48.76,128.89,48.67C131.87,48.31,130.87,50.98,126.04,56.26C122.29,60.37,121.00,62.56,121.00,64.83C121.00,66.85,121.75,68.41,123.22,69.44C127.04,72.12,130.36,71.34,136.41,66.36C142.05,61.71,142.05,61.71,145.62,63.61C151.44,66.69,165.44,78.34,165.85,80.43C166.25,82.53,163.62,85.00,160.99,85.00C160.09,85.00,156.92,83.17,153.93,80.92C147.40,76.02,145.00,74.64,145.00,75.79C145.00,76.27,147.70,78.61,151.00,81.00C154.44,83.49,157.00,86.10,157.00,87.12C157.00,88.72,153.55,92.00,151.87,92.00C151.49,92.00,148.99,90.27,146.32,88.16C143.65,86.04,140.45,83.78,139.23,83.12C135.20,80.97,136.90,83.50,142.06,87.35C147.39,91.33,147.96,93.29,144.46,95.61C142.62,96.83,141.53,96.36,132.96,90.64C122.96,83.96,112.29,78.01,110.32,78.00C108.80,78.00,95.64,88.55,90.82,93.62C85.74,98.99,78.00,111.88,78.02,114.95C78.03,116.57,80.57,120.74,85.02,126.41C90.43,133.32,92.00,136.06,92.00,138.60C92.00,140.41,91.54,142.16,90.98,142.51C90.42,142.86,87.18,140.62,83.78,137.54C80.37,134.46,76.55,131.67,75.29,131.36C73.94,131.02,71.95,131.46,70.49,132.41C68.55,133.68,68.00,134.90,68.00,137.88C68.00,140.93,68.82,142.65,72.00,146.26C74.20,148.76,76.00,151.24,76.00,151.77C76.00,153.28,55.58,175.46,53.89,175.78C53.06,175.94,51.62,175.23,50.69,174.21ZM245.69,173.20C244.21,171.65,243.00,169.70,243.00,168.85C243.00,168.00,243.91,166.49,245.02,165.48C247.00,163.69,247.12,163.73,250.52,167.02C252.43,168.88,254.00,170.91,254.00,171.54C254.00,172.90,250.77,176.00,249.36,176.00C248.82,176.00,247.16,174.74,245.69,173.20ZM251.95,165.11C250.25,163.40,249.00,161.27,249.18,160.37C249.35,159.47,250.46,158.10,251.63,157.33C253.54,156.06,254.06,156.18,256.93,158.59C260.56,161.65,260.68,164.49,257.28,166.74C255.21,168.10,254.83,167.99,251.95,165.11ZM217.26,154.25C212.88,149.99,208.96,145.46,208.56,144.19C207.68,141.41,210.60,135.05,217.96,123.75C220.73,119.49,223.00,115.07,223.00,113.92C223.00,112.78,220.74,108.48,217.98,104.37C215.21,100.25,213.21,96.46,213.53,95.94C213.86,95.42,219.46,95.00,225.99,95.00C237.81,95.00,237.87,95.01,239.81,97.75C241.60,100.29,244.79,106.91,246.37,111.37C246.86,112.77,245.32,115.14,240.26,120.77C228.17,134.22,222.00,141.86,222.00,143.36C222.00,144.17,224.03,147.21,226.50,150.11C228.97,153.01,231.00,156.13,231.00,157.04C231.00,158.83,227.99,162.00,226.28,162.00C225.70,162.00,221.63,158.51,217.26,154.25ZM258.17,157.40C256.60,156.31,255.98,155.01,256.19,153.25C256.36,151.85,257.24,150.24,258.15,149.67C259.36,148.91,260.48,149.09,262.40,150.34C265.18,152.16,265.85,155.75,263.80,157.80C262.20,159.40,260.89,159.31,258.17,157.40ZM146.65,150.17C145.74,149.17,145.00,147.92,145.00,147.40C145.00,146.04,198.36,93.00,199.73,93.00C201.98,93.00,206.16,95.03,205.83,95.97C205.20,97.78,150.70,152.00,149.51,152.00C148.85,152.00,147.57,151.18,146.65,150.17ZM38.17,144.40C36.60,143.31,35.98,142.01,36.19,140.25C36.36,138.85,37.27,137.22,38.21,136.63C39.55,135.79,40.45,136.08,42.46,137.96C45.49,140.81,45.73,143.54,43.07,144.96C42.00,145.53,40.98,146.00,40.79,146.00C40.60,146.00,39.42,145.28,38.17,144.40ZM43.69,136.20C42.21,134.65,41.00,132.70,41.00,131.85C41.00,131.00,41.91,129.49,43.02,128.48C45.00,126.69,45.12,126.73,48.52,130.02C50.43,131.88,52.00,133.91,52.00,134.54C52.00,135.90,48.77,139.00,47.36,139.00C46.82,139.00,45.16,137.74,43.69,136.20ZM49.63,127.93C48.19,126.79,47.00,125.06,47.00,124.08C47.00,122.23,49.95,119.00,51.64,119.00C53.15,119.00,58.00,124.42,58.00,126.10C58.00,128.09,56.00,130.00,53.93,130.00C53.02,130.00,51.08,129.07,49.63,127.93ZM216.18,87.78C215.23,86.83,217.38,84.15,226.22,75.28C237.47,64.00,237.47,64.00,246.17,64.00C251.60,64.00,255.15,64.43,255.59,65.14C256.00,65.82,251.65,70.86,244.81,77.64C233.33,89.00,233.33,89.00,225.37,89.00C220.44,89.00,216.94,88.54,216.18,87.78ZM198.97,84.59C196.55,82.25,184.28,75.89,179.30,74.39C174.95,73.08,174.50,73.12,172.51,74.99C171.33,76.10,169.81,77.00,169.13,77.00C168.45,77.00,164.88,74.60,161.20,71.66C153.00,65.12,143.73,59.00,142.03,59.00C141.34,59.00,138.17,61.25,135.00,64.00C131.83,66.75,128.57,69.00,127.77,69.00C126.97,69.00,125.47,68.08,124.45,66.95C122.79,65.11,122.75,64.66,124.05,62.54C124.85,61.24,128.51,57.02,132.18,53.17C138.48,46.56,139.19,46.12,144.36,45.47C151.60,44.57,169.48,46.65,179.62,49.57C184.09,50.86,190.84,53.41,194.62,55.24C201.50,58.56,201.50,58.56,202.26,68.03C203.16,79.20,202.89,85.22,201.47,85.68C200.91,85.87,199.78,85.38,198.97,84.59ZM209.25,79.87C208.45,79.05,208.00,75.54,208.00,70.03C208.00,61.46,208.00,61.46,218.48,51.02C226.54,42.99,229.24,40.84,230.15,41.75C230.80,42.40,231.53,46.49,231.79,50.85C232.24,58.77,232.24,58.77,221.37,69.96C212.62,78.96,210.26,80.89,209.25,79.87Z" fill="#ddab45" stroke="none" /><path d="M140.22,262.44C139.00,261.59,138.00,260.21,138.00,259.38C138.00,258.30,137.40,258.06,135.91,258.53C134.48,258.98,133.08,258.49,131.41,256.92C130.09,255.67,129.00,254.14,129.00,253.52C129.00,252.90,130.58,250.86,132.52,248.98C135.82,245.78,136.23,245.65,139.27,246.76C142.19,247.83,142.32,247.80,140.56,246.47C139.49,245.66,138.10,245.00,137.47,245.00C136.85,245.00,135.13,243.65,133.66,242.00C132.15,240.31,129.98,239.00,128.68,239.00C127.41,239.00,125.12,240.31,123.59,241.91C121.40,244.20,120.06,244.76,117.34,244.54C112.98,244.20,99.22,237.41,92.00,232.04C84.29,226.31,73.18,215.22,67.93,208.03C63.78,202.33,56.29,189.50,53.97,184.11C53.21,182.33,53.29,181.31,54.30,180.11C55.04,179.22,60.68,172.77,66.83,165.76C72.97,158.76,78.00,152.50,78.00,151.86C78.00,151.23,75.98,148.24,73.50,145.24C71.03,142.23,69.00,139.12,69.00,138.32C69.00,137.52,69.48,135.89,70.07,134.68C71.04,132.70,70.96,132.72,69.21,134.89C67.75,136.69,67.09,136.96,66.48,135.97C65.49,134.37,71.19,129.00,73.88,129.00C76.00,129.00,79.67,131.59,85.75,137.37C90.00,141.42,90.00,141.42,90.00,138.37C90.00,136.12,88.19,133.00,83.10,126.48C77.43,119.23,76.24,117.07,76.45,114.45C76.81,109.87,83.32,99.62,90.94,91.61C97.44,84.79,108.43,76.00,110.45,76.00C112.30,76.01,123.22,82.13,132.87,88.58C141.57,94.39,145.00,95.53,145.00,92.61C145.00,91.96,142.75,89.75,140.00,87.69C137.25,85.64,135.00,83.58,135.00,83.10C135.00,82.63,135.61,81.74,136.35,81.12C137.75,79.96,137.79,79.98,147.85,87.28C151.70,90.06,155.00,90.14,155.00,87.45C155.00,86.72,152.30,84.04,149.00,81.50C145.70,78.96,143.00,76.51,143.00,76.06C143.00,75.61,143.61,74.74,144.36,74.12C145.42,73.24,147.24,74.10,152.61,78.02C159.53,83.08,163.19,84.01,163.79,80.84C164.00,79.77,161.46,77.13,156.61,73.34C152.48,70.13,147.52,66.65,145.58,65.61C142.05,63.71,142.05,63.71,136.41,68.36C129.83,73.78,126.62,74.24,122.08,70.41C117.69,66.72,117.91,62.72,122.76,57.44C124.82,55.21,127.14,52.60,127.92,51.64C129.22,50.03,129.14,49.97,126.92,50.83C125.59,51.35,121.80,52.55,118.50,53.51C106.58,56.95,91.93,65.84,81.68,75.84C71.76,85.52,60.23,102.58,57.06,112.27C55.89,115.86,55.98,116.21,58.92,119.56C62.95,124.15,63.01,128.17,59.11,131.81C57.53,133.29,55.92,135.52,55.54,136.78C54.73,139.43,50.57,142.47,49.03,141.52C48.44,141.16,48.27,140.37,48.64,139.78C49.02,139.16,48.85,138.98,48.24,139.35C47.65,139.72,45.67,138.77,43.83,137.26C40.50,134.51,40.50,134.51,43.50,138.11C45.15,140.08,46.84,141.52,47.26,141.29C47.67,141.06,48.31,141.65,48.67,142.59C49.13,143.78,48.35,145.19,46.15,147.16C44.40,148.72,42.35,150.00,41.60,150.00C40.84,150.00,40.04,151.28,39.81,152.86C39.45,155.31,39.67,155.65,41.44,155.24C42.57,154.98,46.00,152.04,49.06,148.71C53.08,144.33,55.10,142.82,56.31,143.29C57.24,143.65,58.00,144.38,58.00,144.92C58.00,145.46,55.08,149.19,51.51,153.20C45.26,160.23,43.19,165.00,46.41,165.00C47.18,165.00,50.81,161.76,54.48,157.80C58.15,153.84,61.82,150.50,62.64,150.38C63.45,150.26,64.37,150.80,64.67,151.59C65.20,152.97,61.36,158.26,54.28,165.92C52.38,167.97,51.08,170.35,51.23,171.49C51.83,175.90,54.87,174.03,64.40,163.38C69.68,157.48,74.00,152.24,74.00,151.73C74.00,151.22,72.19,148.75,69.97,146.23C66.35,142.11,65.50,140.18,67.10,139.67C67.73,139.48,77.00,150.64,77.00,151.59C77.00,152.74,64.28,167.47,59.11,172.30C53.96,177.12,53.31,177.25,49.75,174.19C47.40,172.18,47.55,170.12,50.25,167.17C52.50,164.71,52.50,164.71,49.75,166.47C47.19,168.11,46.83,168.12,44.50,166.59C41.64,164.72,41.26,161.47,43.59,158.90C45.07,157.27,45.03,157.18,43.06,157.69C40.62,158.33,37.00,155.57,37.00,153.07C37.00,152.18,37.66,150.51,38.46,149.36C39.79,147.46,39.70,147.07,37.46,144.96C36.11,143.69,35.00,141.67,35.00,140.48C35.00,138.28,37.80,135.00,39.69,135.00C40.26,135.00,40.51,133.87,40.24,132.49C39.65,129.37,41.52,126.99,44.35,127.28C46.05,127.45,46.45,127.02,46.25,125.18C45.92,122.09,47.52,119.29,50.10,118.47C51.66,117.97,53.07,118.65,55.60,121.10C57.47,122.91,59.00,124.09,59.00,123.73C59.00,123.37,57.58,121.45,55.84,119.47C52.68,115.88,52.68,115.88,55.02,110.19C58.15,102.55,66.71,88.86,72.95,81.50C81.59,71.31,93.99,61.55,105.72,55.67C111.55,52.75,122.10,49.08,125.84,48.67C127.35,48.51,129.13,48.04,129.80,47.63C131.18,46.77,133.00,47.63,133.00,49.13C133.00,49.69,130.53,52.74,127.50,55.91C124.47,59.09,122.00,61.97,122.00,62.32C122.00,62.66,124.81,59.92,128.24,56.22C137.56,46.18,139.07,45.13,145.12,44.42C150.32,43.81,168.28,45.43,170.32,46.70C170.88,47.04,172.51,47.41,173.95,47.53C178.57,47.89,187.29,50.88,195.00,54.74C202.50,58.50,202.50,58.50,202.50,65.25C202.50,69.08,202.07,72.00,201.50,72.01C200.95,72.01,200.36,69.20,200.20,65.76C199.89,59.50,199.89,59.50,192.70,56.33C188.74,54.59,182.80,52.42,179.50,51.52C176.20,50.61,172.82,49.63,172.00,49.34C169.43,48.43,156.88,47.50,148.22,47.56C139.94,47.62,139.94,47.62,134.39,53.06C131.34,56.05,127.91,59.80,126.76,61.38C125.13,63.64,124.92,64.64,125.78,66.02C127.32,68.48,126.04,69.35,123.83,67.35C122.80,66.41,122.00,66.18,122.00,66.81C122.00,68.37,125.35,70.00,128.56,70.00C130.73,70.00,131.03,69.74,130.10,68.62C129.18,67.52,130.12,66.25,134.73,62.32C137.95,59.58,141.40,57.48,142.53,57.56C144.75,57.72,155.83,65.01,163.14,71.12C165.69,73.26,168.36,75.00,169.07,75.00C169.79,75.00,171.32,74.11,172.48,73.02C174.32,71.29,175.07,71.18,178.54,72.14C183.49,73.50,190.90,77.20,197.81,81.77C201.41,84.14,202.80,85.60,202.11,86.29C201.42,86.98,200.03,86.51,197.80,84.85C192.21,80.68,185.74,77.29,180.30,75.68C175.38,74.22,174.96,74.24,172.64,76.07C171.29,77.13,169.63,78.00,168.95,78.00C168.28,78.00,164.75,75.61,161.11,72.68C157.47,69.76,151.68,65.46,148.23,63.14C141.97,58.90,141.97,58.90,136.55,63.68C133.57,66.31,131.31,68.65,131.54,68.88C131.77,69.11,133.98,67.43,136.46,65.15C138.93,62.87,141.45,61.00,142.06,61.00C143.84,61.00,153.99,67.94,160.75,73.77C164.19,76.74,167.00,79.96,167.00,80.93C167.00,81.90,166.11,83.49,165.03,84.48C163.62,85.75,162.18,86.09,159.98,85.65C157.99,85.25,157.12,85.39,157.54,86.06C157.89,86.62,157.46,88.17,156.59,89.50C155.36,91.37,154.34,91.82,151.94,91.52C150.24,91.30,148.14,90.54,147.27,89.81C145.84,88.63,145.82,88.72,147.04,90.69C148.24,92.61,148.18,93.14,146.58,94.91C145.41,96.21,143.81,96.81,142.13,96.60C140.68,96.42,135.64,93.62,130.91,90.39C126.19,87.15,119.56,83.18,116.18,81.57C110.03,78.65,110.03,78.65,104.52,82.44C96.81,87.75,87.82,97.68,82.51,106.76C80.03,110.99,78.00,114.78,78.00,115.16C78.00,115.55,80.85,119.61,84.34,124.18C87.82,128.76,91.20,133.48,91.84,134.68C93.39,137.60,93.30,140.20,91.58,142.56C90.19,144.46,90.11,144.45,87.58,142.08C83.55,138.29,84.55,140.79,89.00,145.62C91.50,148.32,93.00,150.92,93.00,152.52C93.00,155.66,90.41,160.83,83.37,171.75C80.40,176.34,77.53,179.82,76.97,179.48C75.85,178.79,75.85,178.78,81.25,170.56C86.92,161.95,90.00,155.47,90.00,152.20C90.00,149.95,88.40,147.78,82.52,142.08C78.40,138.09,74.46,135.01,73.77,135.24C71.01,136.15,71.99,139.81,76.45,145.28C78.95,148.35,81.00,151.36,81.00,151.96C81.00,153.07,64.69,172.35,61.57,174.95C60.65,175.70,58.99,177.61,57.87,179.18C55.84,182.04,55.84,182.04,60.05,190.27C68.79,207.32,80.97,221.56,94.88,230.94C98.38,233.31,105.05,237.00,109.69,239.14C118.13,243.04,118.13,243.04,120.90,241.07C122.43,239.98,124.26,238.40,124.96,237.55C127.05,235.03,130.73,235.76,134.87,239.50C137.00,241.43,139.21,243.00,139.78,243.00C140.35,243.00,142.04,244.46,143.53,246.25C145.03,248.04,147.17,250.01,148.29,250.62C149.41,251.24,151.05,253.27,151.92,255.12C152.91,257.23,154.36,258.62,155.76,258.82C160.02,259.43,158.22,255.50,151.31,249.12C145.06,243.36,144.73,242.84,146.29,241.28C148.15,239.42,147.46,238.98,158.69,249.25C161.54,251.86,164.60,254.00,165.47,254.00C166.35,254.00,167.34,253.29,167.67,252.41C168.10,251.31,165.91,248.65,160.46,243.61C154.68,238.29,152.80,235.95,153.28,234.70C153.64,233.76,154.34,233.00,154.83,233.00C155.31,233.00,159.65,236.38,164.47,240.50C169.28,244.62,173.57,248.00,173.99,248.00C174.41,248.00,175.34,247.30,176.04,246.45C177.14,245.12,176.47,244.01,171.42,238.89C164.59,231.97,155.88,225.00,154.06,225.00C153.37,225.00,150.76,226.80,148.26,229.00C142.63,233.96,139.09,234.25,134.92,230.08C130.50,225.65,131.03,222.87,137.62,215.96C141.18,212.23,143.03,209.52,142.66,208.57C141.82,206.37,143.94,205.51,145.74,207.31C147.13,208.70,146.71,209.47,141.43,215.18C136.16,220.87,136.37,220.73,143.54,213.81C147.92,209.58,152.65,205.84,154.05,205.50C155.90,205.05,158.51,205.89,163.41,208.49C167.15,210.47,171.52,212.98,173.11,214.05C174.70,215.12,177.33,216.90,178.96,218.00C180.59,219.10,182.67,220.00,183.60,220.00C187.98,220.00,205.84,206.49,211.96,198.55C216.59,192.54,222.00,182.53,222.00,179.98C222.00,178.97,220.34,175.98,218.31,173.33C216.28,170.67,213.13,166.55,211.31,164.17C207.66,159.41,206.91,154.15,209.55,151.96C210.87,150.86,211.94,151.47,216.76,156.08C221.38,160.51,221.11,160.10,215.30,153.85C211.40,149.65,207.89,145.24,207.52,144.06C206.76,141.67,210.27,134.29,217.59,122.87C220.01,119.08,222.00,115.24,222.00,114.33C222.00,112.50,218.06,105.29,214.28,100.20C210.13,94.63,211.26,94.00,225.42,94.00C237.90,94.00,237.90,94.00,240.48,97.38C241.89,99.24,244.16,103.57,245.50,107.00C247.95,113.24,247.95,113.24,244.22,117.51C242.18,119.86,236.31,126.57,231.19,132.42C221.89,143.07,221.89,143.07,224.90,146.88C226.57,148.98,228.72,151.32,229.70,152.10C230.67,152.87,229.79,151.51,227.73,149.07C225.68,146.63,224.00,144.11,224.00,143.47C224.00,141.34,244.79,118.00,246.69,118.00C248.40,118.00,253.00,122.04,253.00,123.54C253.00,124.30,251.54,126.63,249.75,128.71C246.50,132.49,246.50,132.49,249.83,129.74C251.66,128.23,253.57,127.00,254.08,127.00C255.53,127.00,259.00,130.85,259.00,132.47C259.00,133.27,257.55,135.63,255.79,137.72C253.54,140.36,253.33,140.82,255.10,139.25C256.49,138.01,258.32,137.00,259.16,137.00C261.12,137.00,264.00,140.17,264.00,142.33C264.00,143.25,263.12,144.88,262.04,145.96C260.09,147.91,260.10,147.93,263.04,150.03C264.84,151.31,266.00,153.03,266.00,154.41C266.00,157.41,262.62,160.45,260.29,159.56C258.85,159.02,258.75,159.13,259.75,160.14C260.44,160.83,261.00,162.18,261.00,163.13C261.00,165.50,256.29,169.04,254.19,168.26C252.72,167.71,252.68,167.84,253.86,169.30C255.58,171.41,254.83,173.41,251.50,175.59C248.95,177.26,248.84,177.24,245.45,173.95C243.55,172.11,242.00,169.94,242.00,169.13C242.00,168.32,242.74,166.83,243.65,165.83C244.57,164.82,245.03,164.00,244.69,164.00C244.36,164.00,243.21,164.93,242.14,166.08C240.71,167.61,240.01,167.83,239.45,166.91C238.97,166.14,239.87,164.61,241.84,162.85C243.58,161.30,245.00,159.42,245.00,158.68C245.00,157.94,246.80,155.71,249.00,153.74C251.20,151.76,253.00,149.67,253.00,149.09C253.00,148.51,254.80,147.12,257.00,146.00C259.63,144.66,261.00,143.28,261.00,141.98C261.00,138.21,257.25,139.85,251.86,145.97C246.96,151.54,246.48,151.84,244.84,150.35C243.18,148.85,243.45,148.33,249.59,141.28C255.76,134.21,257.05,131.18,254.28,130.26C253.61,130.04,249.70,133.38,245.59,137.68C238.83,144.75,237.97,145.35,236.55,143.96C235.13,142.56,235.69,141.59,242.49,133.67C246.62,128.87,250.00,124.26,250.00,123.44C250.00,122.61,249.23,121.64,248.30,121.28C247.04,120.80,244.37,123.00,237.97,129.81C233.23,134.85,228.75,140.09,228.02,141.45C226.80,143.74,227.00,144.29,230.54,148.62C233.20,151.86,234.48,154.47,234.69,157.07C234.94,160.26,234.49,161.25,231.81,163.51C227.30,167.30,223.92,166.35,216.75,159.26C211.00,153.56,211.00,153.56,211.00,156.63C211.00,158.82,212.73,162.02,217.04,167.82C220.37,172.28,223.52,176.20,224.04,176.53C225.76,177.59,225.03,181.39,221.94,187.50C218.19,194.93,210.67,204.33,203.75,210.24C196.96,216.04,186.17,223.00,183.97,223.00C183.03,223.00,178.81,220.75,174.61,218.01C164.86,211.64,157.67,208.00,154.86,208.00C151.85,208.00,137.69,222.13,138.17,224.65C138.81,227.95,141.68,227.18,147.84,222.05C151.18,219.27,154.19,217.00,154.54,217.00C155.07,217.00,161.65,222.50,176.78,235.58C179.35,237.81,179.99,238.89,179.08,239.45C178.26,239.96,176.16,238.67,173.15,235.81C162.74,225.92,155.02,219.87,153.77,220.63C150.68,222.52,142.02,230.00,142.93,230.00C143.48,230.00,146.23,227.96,149.03,225.48C154.12,220.95,154.12,220.95,156.81,222.92C158.29,224.00,163.77,228.75,168.98,233.48C176.65,240.43,178.50,242.64,178.62,245.05C178.70,246.69,178.26,248.35,177.63,248.76C175.05,250.42,171.38,249.59,168.05,246.60C164.60,243.50,164.60,243.50,167.82,247.31C169.59,249.41,170.74,251.66,170.37,252.31C168.92,254.87,166.63,257.00,165.32,257.00C164.57,257.00,161.83,255.10,159.23,252.79C155.04,249.05,154.88,248.98,157.84,252.18C159.75,254.24,161.04,256.57,160.84,257.61C160.64,258.61,159.28,260.11,157.80,260.94C155.29,262.35,154.94,262.30,152.74,260.23C150.37,258.00,150.37,258.00,147.50,261.00C145.92,262.65,144.14,264.00,143.54,264.00C142.94,264.00,141.44,263.30,140.22,262.44ZM145.99,259.51C146.72,258.64,146.91,257.30,146.45,256.26C146.03,255.29,145.77,254.11,145.88,253.64C146.08,252.76,143.07,250.09,141.81,250.03C141.43,250.01,141.19,250.87,141.27,251.93C141.35,252.99,141.74,253.66,142.14,253.41C143.61,252.50,143.92,254.82,142.49,256.01C140.34,257.79,140.59,261.00,142.88,261.00C143.91,261.00,145.31,260.33,145.99,259.51ZM137.93,253.57C140.37,250.98,140.01,249.00,137.10,249.00C134.70,249.00,131.61,252.55,132.35,254.46C133.20,256.69,135.32,256.35,137.93,253.57ZM123.17,250.69C121.98,249.41,121.00,247.87,121.00,247.26C121.00,245.08,126.20,240.00,128.43,240.00C130.93,240.00,134.00,242.83,134.00,245.13C134.00,246.78,127.98,253.00,126.38,253.00C125.81,253.00,124.37,251.96,123.17,250.69ZM130.82,245.14C131.05,243.61,130.62,243.01,129.32,243.03C125.36,243.10,122.10,248.12,125.25,249.30C127.15,250.02,130.46,247.54,130.82,245.14ZM180.96,242.46C178.41,239.74,179.70,238.37,182.43,240.91C184.48,242.82,184.55,242.82,189.53,240.67C207.65,232.85,223.63,219.40,234.60,202.75C237.11,198.94,239.97,193.50,240.95,190.66C241.94,187.82,243.31,184.00,244.00,182.18C245.18,179.02,245.08,178.68,241.93,175.42C239.86,173.29,238.96,171.65,239.55,171.08C240.14,170.51,241.97,171.86,244.36,174.63C248.23,179.10,248.23,179.10,246.11,184.18C244.95,186.98,244.00,189.92,244.00,190.72C244.00,192.70,237.80,203.11,232.57,209.90C226.90,217.27,213.90,229.58,207.00,234.13C198.99,239.40,187.59,244.92,185.10,244.73C183.92,244.64,182.05,243.62,180.96,242.46ZM110.78,219.63C104.40,215.78,94.38,208.23,91.68,205.22C88.37,201.53,91.73,201.88,95.67,205.64C100.73,210.48,115.32,220.00,117.66,220.00C118.68,220.00,123.54,216.84,128.45,212.98C136.57,206.61,139.25,205.18,139.09,207.30C139.00,208.53,119.41,223.00,117.83,223.00C117.04,223.00,113.86,221.48,110.78,219.63ZM82.12,192.94C78.75,187.96,76.00,183.48,76.00,183.00C76.00,182.51,76.41,181.87,76.90,181.56C77.40,181.25,79.14,183.36,80.77,186.25C82.40,189.14,85.34,193.60,87.29,196.16C90.51,200.38,90.97,202.00,88.95,202.00C88.56,202.00,85.49,197.92,82.12,192.94ZM137.46,175.14C129.21,171.24,123.57,164.70,120.91,155.93C119.17,150.22,119.02,148.35,119.89,143.64C120.45,140.58,121.80,136.36,122.87,134.25C125.53,129.05,132.01,122.54,137.18,119.91C144.61,116.12,160.74,116.58,164.15,120.68C165.11,121.83,164.31,123.13,159.95,127.55C154.97,132.59,154.22,133.00,149.93,133.00C138.73,133.00,131.63,144.83,136.75,154.96C137.78,156.99,140.36,159.49,143.00,161.03C146.52,163.07,148.26,163.50,151.00,162.99C156.31,162.00,160.87,159.26,163.10,155.70C164.63,153.26,165.02,151.26,164.73,147.30C164.35,142.16,164.41,142.02,169.62,136.88C173.90,132.66,175.17,131.89,176.32,132.85C178.10,134.33,180.46,142.45,179.54,143.94C178.54,145.55,177.01,144.21,176.96,141.69C176.95,140.49,176.36,138.48,175.68,137.24C174.42,134.98,174.42,134.98,170.65,138.84C167.55,142.02,167.00,143.17,167.55,145.36C168.71,149.98,167.09,154.95,162.93,159.46C160.25,162.36,157.54,164.15,154.52,164.99C152.07,165.68,149.27,165.90,148.28,165.48C147.30,165.06,145.75,164.64,144.84,164.53C142.21,164.24,138.37,161.35,135.35,157.39C133.07,154.40,132.56,152.71,132.53,148.04C132.51,143.36,133.01,141.59,135.36,138.20C138.72,133.35,144.95,130.00,150.61,130.00C153.91,130.00,155.24,129.34,158.36,126.15C162.12,122.29,162.12,122.29,159.11,121.05C154.33,119.07,144.93,119.50,139.37,121.95C128.89,126.57,122.71,136.25,122.72,148.00C122.74,158.52,127.11,166.48,135.71,171.63C140.04,174.22,141.37,174.50,149.50,174.50C157.28,174.50,159.17,174.14,163.49,171.87C169.64,168.64,173.72,163.75,176.07,156.80C177.94,151.27,179.69,150.46,179.24,155.33C178.59,162.25,171.16,171.05,162.50,175.16C157.82,177.37,155.07,178.00,150.00,178.00C144.93,178.00,142.18,177.37,137.46,175.14ZM251.67,172.41C252.41,170.49,247.71,165.44,246.10,166.44C244.50,167.43,244.75,170.07,246.65,172.17C248.69,174.42,250.86,174.53,251.67,172.41ZM258.00,162.95C258.00,160.74,254.32,157.94,252.39,158.68C250.42,159.44,250.67,161.67,252.98,163.98C255.24,166.24,258.00,165.67,258.00,162.95ZM230.43,161.43C232.66,159.20,232.38,158.34,230.10,160.41C228.96,161.44,227.95,161.73,227.58,161.13C227.24,160.59,227.42,159.86,227.98,159.51C230.00,158.27,228.92,155.20,224.86,150.58C222.58,147.99,220.66,144.89,220.58,143.69C220.44,141.46,225.16,135.35,238.26,120.77C243.27,115.19,244.86,112.76,244.39,111.37C244.04,110.34,242.42,106.69,240.79,103.25C237.83,97.00,237.83,97.00,226.43,97.00C215.03,97.00,215.03,97.00,220.01,104.42C222.76,108.51,225.00,112.78,225.00,113.92C225.00,115.07,222.73,119.49,219.96,123.75C213.08,134.32,209.69,141.46,210.44,143.81C210.78,144.88,214.39,149.05,218.46,153.09C222.53,157.12,225.63,160.79,225.36,161.23C225.09,161.67,224.37,161.73,223.78,161.36C223.13,160.96,222.98,161.16,223.40,161.85C224.43,163.51,228.59,163.26,230.43,161.43ZM263.00,154.61C263.00,152.44,261.37,151.00,258.92,151.00C257.52,151.00,257.82,155.76,259.25,156.34C261.91,157.41,263.00,156.91,263.00,154.61ZM147.21,151.43C144.57,149.58,145.22,147.49,147.91,149.17C149.35,150.07,150.21,149.91,152.11,148.40C153.42,147.36,165.63,135.24,179.24,121.49C202.70,97.77,203.88,96.40,201.89,95.16C199.93,93.94,198.07,95.58,173.02,120.52C158.12,135.35,145.94,146.72,145.58,146.13C144.83,144.91,196.53,93.51,198.52,93.49C199.26,93.48,200.13,93.21,200.45,92.88C201.32,92.01,205.79,93.04,206.87,94.36C207.51,95.14,198.93,104.51,179.49,124.25C163.93,140.06,150.80,153.00,150.32,153.00C149.84,153.00,148.44,152.29,147.21,151.43ZM42.64,142.49C43.33,140.71,41.35,138.00,39.38,138.00C37.65,138.00,37.54,142.65,39.25,143.34C41.40,144.21,42.05,144.05,42.64,142.49ZM49.67,135.41C50.41,133.49,45.71,128.44,44.10,129.44C42.50,130.43,42.75,133.07,44.65,135.17C46.69,137.42,48.86,137.53,49.67,135.41ZM56.00,126.15C56.00,123.71,52.47,120.60,50.54,121.35C48.46,122.15,48.59,125.66,50.75,126.92C53.55,128.55,56.00,128.20,56.00,126.15ZM214.71,88.76C213.20,87.64,214.34,86.16,225.14,75.25C237.27,63.00,237.27,63.00,246.67,63.00C254.42,63.00,256.17,63.28,256.69,64.63C257.13,65.79,253.94,69.58,245.41,78.03C233.50,89.80,233.50,89.80,224.95,89.91C219.49,89.98,215.80,89.57,214.71,88.76ZM235.30,86.68C235.85,87.03,236.01,86.83,235.65,86.24C235.28,85.65,239.38,80.86,244.74,75.60C254.50,66.04,254.50,66.04,245.98,66.02C237.46,66.00,237.46,66.00,227.06,76.44C216.65,86.89,216.65,86.89,222.57,87.19C225.83,87.36,229.80,87.18,231.39,86.78C232.98,86.38,234.74,86.34,235.30,86.68ZM208.22,81.82C207.43,81.03,207.00,77.22,207.00,71.03C207.00,61.47,207.00,61.47,218.39,50.11C224.95,43.57,230.25,39.04,230.89,39.43C232.31,40.31,232.34,45.67,230.93,46.54C230.34,46.91,229.61,46.23,229.29,45.01C228.78,43.05,227.72,43.81,219.36,52.14C210.00,61.46,210.00,61.46,210.03,70.48C210.07,79.50,210.07,79.50,219.98,69.30C229.76,59.24,229.90,59.02,230.20,53.80C230.36,50.88,230.95,48.50,231.50,48.50C232.05,48.50,232.63,50.98,232.78,54.00C233.07,59.50,233.07,59.50,221.25,71.27C211.97,80.51,209.17,82.77,208.22,81.82Z" fill="#736b48" stroke="none" /><path d="M124.53,204.39C115.14,199.58,105.93,191.61,99.81,183.00C98.44,181.07,95.83,176.04,94.01,171.82C90.70,164.13,90.70,164.13,92.85,159.13C94.03,156.38,95.00,153.31,94.99,152.31C94.99,151.32,94.37,149.31,93.61,147.87C92.77,146.26,92.58,144.70,93.10,143.87C94.47,141.71,94.13,135.78,92.47,132.59C91.23,130.22,91.17,129.01,92.11,126.09C94.20,119.61,100.75,109.60,106.68,103.82C114.37,96.32,122.63,91.00,126.56,91.00C128.60,91.00,131.61,92.39,135.26,95.00C138.33,97.20,141.49,99.00,142.28,99.00C143.07,99.00,145.28,97.94,147.18,96.65C149.08,95.36,151.81,94.01,153.24,93.65C154.67,93.29,157.18,91.88,158.82,90.50C160.45,89.13,162.76,88.00,163.95,88.00C168.50,88.00,186.00,97.74,186.00,100.27C186.00,101.65,175.98,112.00,174.65,112.00C174.22,112.00,171.44,110.89,168.48,109.53C165.51,108.18,160.17,106.53,156.61,105.87C148.14,104.31,138.72,105.83,130.26,110.12C126.81,111.87,121.94,115.50,119.43,118.18C116.92,120.86,113.45,126.08,111.72,129.78C109.09,135.41,108.51,137.96,108.21,145.50C107.92,152.48,108.29,155.91,109.83,160.79C113.65,172.89,122.45,182.43,134.00,187.02C141.56,190.02,152.78,190.69,160.82,188.63C164.29,187.74,169.18,185.80,171.69,184.33C178.30,180.46,184.65,173.44,188.18,166.07C190.67,160.90,191.37,157.96,191.76,151.02C192.13,144.66,191.81,140.82,190.55,136.44C189.61,133.18,187.98,129.01,186.92,127.19C185.87,125.37,185.00,123.46,185.00,122.93C185.00,121.72,192.78,113.40,195.72,111.46C197.83,110.07,198.11,110.24,201.73,115.25C206.48,121.82,209.00,127.24,209.00,130.88C209.00,132.43,208.27,135.15,207.38,136.93C206.24,139.22,205.98,141.25,206.50,143.84C206.90,145.85,207.35,150.65,207.51,154.50C207.66,158.35,208.10,163.13,208.49,165.12C208.99,167.71,208.69,169.70,207.44,172.12C204.18,178.44,195.22,189.70,189.53,194.61C182.88,200.35,170.78,207.02,167.09,206.96C165.67,206.95,163.38,206.29,162.00,205.50C159.06,203.82,153.65,203.58,150.98,205.01C149.69,205.70,147.73,205.65,144.72,204.85C141.03,203.86,139.83,203.94,137.02,205.34C135.19,206.25,132.75,206.99,131.60,206.97C130.44,206.96,127.26,205.80,124.53,204.39Z" fill="#01437a" stroke="none" /><path d="M0.00,149.00C0.00,0.00,0.00,0.00,152.50,0.00C305.00,0.00,305.00,0.00,305.00,149.00C305.00,298.00,305.00,298.00,152.50,298.00C0.00,298.00,0.00,298.00,0.00,149.00ZM146.47,260.04C147.44,258.96,147.98,257.38,147.65,256.54C146.95,254.71,142.90,254.50,141.20,256.20C139.63,257.77,139.66,260.70,141.25,261.34C143.58,262.28,144.69,262.00,146.47,260.04ZM157.42,259.39C160.43,258.24,158.97,255.20,152.45,249.10C147.52,244.49,146.29,242.83,147.46,242.38C148.47,241.99,151.64,244.08,156.56,248.39C160.71,252.03,164.74,255.00,165.52,255.00C166.29,255.00,167.44,254.05,168.06,252.89C169.08,250.99,168.40,250.04,161.34,243.44C155.74,238.21,153.81,235.80,154.57,235.03C155.34,234.26,157.97,235.96,163.76,240.98C169.26,245.73,172.71,248.00,174.44,248.00C176.58,248.00,176.99,247.55,176.96,245.25C176.92,243.06,174.99,240.79,167.49,234.12C153.46,221.64,154.98,222.19,149.02,227.48C145.11,230.95,143.15,232.00,140.54,232.00C138.06,232.00,136.58,231.29,135.07,229.37C131.71,225.09,132.42,222.58,139.00,215.50C142.30,211.95,145.00,208.81,145.00,208.53C145.00,208.24,143.28,208.00,141.17,208.00C137.95,208.00,135.94,209.11,128.43,215.00C123.53,218.85,118.68,222.00,117.66,222.00C114.74,222.00,99.25,211.41,92.93,205.09C87.47,199.63,77.78,186.02,76.51,182.04C76.12,180.81,77.75,177.36,81.34,171.79C88.49,160.70,91.00,155.66,91.00,152.36C91.00,150.29,89.10,147.73,83.10,141.73C76.03,134.67,74.97,133.95,73.10,134.95C71.94,135.57,71.00,136.90,71.00,137.92C71.00,138.94,73.03,142.23,75.50,145.24C77.98,148.24,80.00,151.21,80.00,151.83C80.00,152.45,74.38,159.36,67.50,167.20C57.69,178.38,55.14,181.87,55.62,183.47C55.97,184.59,56.60,185.95,57.04,186.50C57.47,187.05,59.50,190.65,61.54,194.50C63.58,198.35,66.60,203.47,68.25,205.87C72.62,212.22,83.56,223.54,90.48,228.88C97.72,234.46,114.36,243.00,118.00,243.00C119.61,243.00,121.73,241.84,123.50,240.00C125.10,238.33,127.42,237.00,128.73,237.00C130.03,237.00,132.31,238.23,133.80,239.73C135.28,241.23,137.85,243.15,139.50,243.98C141.15,244.82,142.93,246.48,143.46,247.68C143.99,248.89,145.43,250.33,146.67,250.90C147.91,251.46,150.07,253.74,151.48,255.96C152.88,258.18,154.43,260.00,154.93,260.00C155.43,260.00,156.55,259.73,157.42,259.39ZM138.06,254.94C140.50,252.50,140.27,248.67,137.66,248.17C135.72,247.80,131.00,251.56,131.00,253.47C131.00,255.00,133.10,257.00,134.70,257.00C135.41,257.00,136.93,256.07,138.06,254.94ZM129.92,248.59C132.99,245.32,132.35,242.50,128.52,242.50C126.38,242.50,125.17,243.22,124.09,245.15C122.84,247.37,122.82,248.07,123.92,249.40C124.65,250.28,125.79,251.00,126.45,251.00C127.11,251.00,128.67,249.92,129.92,248.59ZM194.27,239.37C198.25,237.38,203.97,234.12,206.99,232.12C214.01,227.49,225.03,217.11,230.57,209.91C235.80,203.11,242.00,192.70,242.00,190.72C242.00,189.92,242.96,186.96,244.13,184.15C246.26,179.03,246.26,179.03,242.63,175.01C240.63,172.80,239.00,170.08,239.00,168.95C239.00,167.83,240.24,165.70,241.75,164.22C243.26,162.75,245.18,160.18,246.00,158.52C246.83,156.86,248.40,155.10,249.50,154.61C250.60,154.12,252.40,152.35,253.50,150.68C254.60,149.00,256.85,146.89,258.50,145.99C260.54,144.86,261.50,143.57,261.50,141.93C261.50,140.32,260.84,139.40,259.50,139.14C258.05,138.86,255.79,140.65,251.29,145.62C246.53,150.86,244.80,152.20,243.90,151.30C243.00,150.40,244.19,148.53,248.95,143.31C256.63,134.91,257.92,132.49,255.85,130.43C255.03,129.60,253.67,129.19,252.84,129.51C252.01,129.83,248.52,133.22,245.09,137.06C241.66,140.89,238.43,143.77,237.93,143.45C237.42,143.14,237.00,142.55,237.00,142.15C237.00,141.74,240.15,137.69,244.00,133.14C247.85,128.59,251.00,124.24,251.00,123.47C251.00,121.59,247.32,119.72,245.58,120.71C243.66,121.81,228.36,139.00,226.90,141.71C225.86,143.62,226.09,144.41,228.60,147.53C230.20,149.51,232.26,152.52,233.20,154.22C234.71,156.97,234.74,157.61,233.44,160.12C231.82,163.25,229.18,165.00,226.10,165.00C224.99,165.00,221.19,162.30,217.66,159.00C214.13,155.70,210.96,153.00,210.62,153.00C210.28,153.00,210.00,154.54,210.00,156.42C210.00,158.80,211.07,161.25,213.50,164.42C215.43,166.94,218.57,171.06,220.50,173.58C222.43,176.09,224.00,178.97,224.00,179.98C224.00,182.68,218.48,192.72,213.50,199.08C206.69,207.78,188.14,222.00,183.60,222.00C182.67,222.00,180.70,221.18,179.21,220.18C177.72,219.19,175.09,217.41,173.36,216.23C171.63,215.06,167.15,212.47,163.41,210.49C158.51,207.89,155.90,207.05,154.05,207.50C151.11,208.22,138.40,220.37,137.67,223.16C137.19,225.00,139.28,228.00,141.03,228.00C141.52,228.00,144.30,226.07,147.21,223.70C150.12,221.34,153.06,219.07,153.75,218.65C154.88,217.95,162.16,223.78,179.00,238.88C181.47,241.10,184.30,242.93,185.27,242.96C186.25,242.98,190.30,241.37,194.27,239.37ZM137.02,203.34C139.83,201.94,141.03,201.86,144.72,202.85C147.73,203.65,149.69,203.70,150.98,203.01C153.65,201.58,159.06,201.82,162.00,203.50C163.38,204.29,165.67,204.95,167.10,204.96C170.51,205.01,182.21,198.79,188.41,193.63C193.40,189.48,202.26,178.28,205.44,172.12C206.69,169.70,206.99,167.71,206.49,165.12C206.10,163.13,205.66,158.35,205.51,154.50C205.35,150.65,204.90,145.85,204.50,143.84C203.98,141.25,204.24,139.22,205.38,136.93C206.27,135.15,207.00,132.46,207.00,130.96C207.00,127.72,204.58,122.16,200.59,116.24C198.14,112.59,197.49,112.16,196.12,113.24C193.13,115.58,187.00,122.16,187.00,123.02C187.00,123.50,187.87,125.37,188.92,127.19C189.98,129.01,191.61,133.18,192.55,136.44C193.81,140.82,194.13,144.66,193.76,151.02C193.37,157.94,192.66,160.92,190.20,166.07C186.65,173.48,178.60,182.33,171.82,186.28C169.24,187.78,164.29,189.74,160.82,190.63C152.78,192.69,141.56,192.02,134.00,189.02C121.89,184.21,111.61,173.07,107.84,160.68C106.21,155.32,105.85,151.99,106.18,145.16C106.52,138.03,107.16,135.25,109.76,129.70C111.64,125.69,115.20,120.55,118.48,117.10C128.65,106.45,143.19,101.40,156.61,103.87C160.17,104.53,165.51,106.18,168.48,107.53C171.44,108.89,174.22,110.00,174.65,110.00C175.83,110.00,184.00,101.73,184.00,100.53C184.00,99.28,181.71,97.77,173.05,93.32C169.50,91.49,165.51,90.00,164.19,90.00C162.87,90.00,160.45,91.13,158.82,92.50C157.18,93.88,154.67,95.29,153.24,95.65C151.81,96.01,149.08,97.36,147.18,98.65C145.28,99.94,143.07,101.00,142.28,101.00C141.49,101.00,138.33,99.20,135.26,97.00C131.61,94.39,128.60,93.00,126.56,93.00C122.83,93.00,114.50,98.21,107.67,104.83C102.62,109.72,96.09,119.97,94.11,126.09C93.17,129.01,93.23,130.22,94.47,132.59C96.13,135.78,96.47,141.71,95.10,143.87C94.58,144.70,94.77,146.26,95.61,147.87C96.37,149.31,96.99,151.32,96.99,152.31C97.00,153.31,96.04,156.37,94.86,159.10C92.72,164.07,92.72,164.07,96.11,172.06C100.15,181.60,106.11,189.55,113.53,195.29C119.98,200.29,128.67,204.95,131.60,204.98C132.75,204.99,135.19,204.25,137.02,203.34ZM163.09,172.75C170.14,169.17,175.21,163.49,176.95,157.22C178.33,152.26,178.28,142.12,176.85,137.90C176.22,136.03,175.54,134.30,175.33,134.06C175.13,133.82,172.99,135.55,170.59,137.91C166.60,141.83,166.26,142.54,166.73,146.04C167.02,148.15,166.97,151.00,166.62,152.36C165.14,158.29,156.31,165.00,150.00,165.00C148.31,165.00,145.19,164.12,143.09,163.04C132.60,157.69,129.86,145.78,137.20,137.43C141.24,132.82,144.92,131.00,150.16,131.00C153.82,131.00,155.03,130.41,158.71,126.79C161.07,124.48,163.00,122.29,163.00,121.92C163.00,120.41,153.61,118.76,147.70,119.23C140.54,119.81,134.83,122.38,130.11,127.17C125.78,131.56,123.15,136.83,121.89,143.64C121.02,148.34,121.17,150.21,122.90,155.85C124.02,159.53,126.36,164.23,128.14,166.38C130.02,168.65,133.87,171.44,137.43,173.13C142.20,175.38,144.91,176.00,150.09,176.00C155.56,176.00,157.79,175.44,163.09,172.75ZM61.08,168.33C66.93,162.16,75.00,152.48,75.00,151.63C75.00,151.27,72.97,148.49,70.50,145.45C68.03,142.41,66.00,139.01,66.00,137.88C66.00,135.24,71.25,130.00,73.90,130.00C75.03,130.00,79.11,132.72,82.98,136.06C88.46,140.77,90.15,141.77,90.62,140.55C91.71,137.71,90.13,134.48,83.03,125.11C79.16,120.00,76.00,115.52,76.00,115.14C76.00,114.77,78.05,110.95,80.56,106.67C85.81,97.71,96.60,85.90,104.54,80.43C110.01,76.66,110.01,76.66,115.25,79.08C118.14,80.41,125.12,84.57,130.77,88.32C141.12,95.20,145.12,96.39,145.80,92.79C146.02,91.69,144.35,89.81,141.06,87.45C138.28,85.45,136.00,83.43,136.00,82.97C136.00,80.52,138.66,81.33,144.12,85.43C150.50,90.23,154.33,91.18,155.46,88.25C156.14,86.46,154.44,84.58,146.97,78.84C144.45,76.91,143.80,75.87,144.58,75.06C145.37,74.24,147.52,75.30,152.58,79.00C157.32,82.47,160.29,83.97,162.00,83.78C163.66,83.60,164.60,82.80,164.80,81.41C165.01,79.93,163.57,78.04,159.80,74.87C153.71,69.75,143.66,63.00,142.11,63.00C141.54,63.00,138.79,65.02,136.00,67.50C130.26,72.60,126.83,73.22,122.63,69.93C120.76,68.46,120.00,66.92,120.00,64.64C120.00,62.13,121.01,60.43,124.58,56.96C127.09,54.51,129.56,51.76,130.06,50.85C130.89,49.33,130.52,49.31,125.23,50.65C105.59,55.64,87.67,66.70,74.68,81.87C68.72,88.83,60.13,102.61,57.02,110.19C54.68,115.88,54.68,115.88,57.84,119.47C61.91,124.11,62.02,127.97,58.16,131.21C56.59,132.53,55.01,134.83,54.63,136.34C54.25,137.84,52.84,139.57,51.48,140.19C50.12,140.81,48.13,142.81,47.06,144.63C45.98,146.45,43.96,148.22,42.54,148.58C39.95,149.23,38.19,152.88,39.46,154.94C40.94,157.33,44.11,155.66,49.34,149.75C53.47,145.09,55.16,143.79,56.02,144.63C56.87,145.47,55.50,147.60,50.58,153.06C43.99,160.38,42.44,164.19,45.57,165.39C47.36,166.07,50.52,164.64,51.71,162.62C52.14,161.87,54.86,158.69,57.75,155.55C61.78,151.16,63.14,150.21,63.61,151.42C64.01,152.47,61.81,155.84,57.11,161.37C53.20,165.98,50.00,170.46,50.00,171.32C50.00,173.42,53.05,175.05,54.97,173.99C55.81,173.53,58.56,170.98,61.08,168.33ZM251.07,173.96C252.13,173.40,253.00,172.35,253.00,171.64C253.00,169.60,248.36,165.78,246.35,166.17C243.64,166.69,243.51,169.85,246.08,172.59C247.33,173.92,248.52,175.00,248.74,175.00C248.96,175.00,250.00,174.53,251.07,173.96ZM258.81,162.78C258.64,161.64,257.28,159.80,255.80,158.69C253.55,157.02,252.83,156.90,251.55,157.96C249.25,159.87,249.67,162.59,252.61,164.91C254.65,166.51,255.64,166.73,257.17,165.91C258.36,165.27,259.00,164.05,258.81,162.78ZM229.70,158.34C230.43,156.43,229.04,153.97,223.67,147.63C219.85,143.11,219.85,143.11,229.17,132.44C234.30,126.57,240.17,119.86,242.21,117.53C245.91,113.28,245.91,113.28,243.87,107.89C242.75,104.93,240.93,101.04,239.84,99.25C237.84,96.00,237.84,96.00,225.92,96.00C215.10,96.00,212.07,96.69,214.98,98.49C216.59,99.48,224.00,112.47,224.00,114.30C224.00,115.22,222.01,119.08,219.59,122.87C217.16,126.66,213.71,132.56,211.92,136.00C208.67,142.24,208.67,142.24,210.48,145.59C211.47,147.43,214.96,151.43,218.22,154.47C224.37,160.19,228.46,161.57,229.70,158.34ZM263.80,154.94C264.01,153.08,263.43,152.03,261.64,151.08C260.29,150.35,258.70,150.07,258.10,150.44C256.38,151.50,256.81,155.79,258.75,156.93C261.46,158.53,263.47,157.74,263.80,154.94ZM178.36,123.25C202.22,99.20,205.60,95.42,203.70,94.93C202.49,94.62,200.50,94.62,199.29,94.93C198.07,95.24,185.80,106.72,172.04,120.42C154.16,138.21,147.00,145.99,147.00,147.59C147.00,149.57,148.04,150.67,150.16,150.92C150.52,150.96,163.21,138.51,178.36,123.25ZM43.79,142.44C44.15,139.93,40.65,136.54,38.54,137.35C36.69,138.06,36.51,142.11,38.24,143.84C40.07,145.67,43.45,144.82,43.79,142.44ZM51.00,134.78C51.00,132.72,46.71,129.00,44.33,129.00C42.53,129.00,42.00,129.55,42.00,131.43C42.00,132.85,43.08,134.70,44.61,135.91C46.61,137.48,47.65,137.72,49.11,136.94C50.15,136.39,51.00,135.41,51.00,134.78ZM56.54,126.88C57.02,125.35,56.50,124.05,54.69,122.24C50.52,118.06,46.18,121.57,49.41,126.51C51.48,129.67,55.59,129.88,56.54,126.88ZM244.11,77.26C250.10,71.47,255.00,66.35,255.00,65.87C255.00,65.39,251.07,65.00,246.27,65.00C237.53,65.00,237.53,65.00,226.77,75.73C220.84,81.64,216.00,86.82,216.00,87.25C216.00,87.67,219.87,87.97,224.61,87.90C233.22,87.78,233.22,87.78,244.11,77.26ZM201.00,72.11C201.00,59.22,201.00,59.22,191.75,55.19C179.19,49.72,165.37,46.81,151.21,46.64C139.92,46.50,139.92,46.50,131.88,54.70C123.19,63.56,122.21,66.27,127.51,66.79C129.91,67.03,131.64,66.08,136.22,61.99C141.95,56.89,141.95,56.89,148.22,61.13C151.68,63.46,157.47,67.76,161.11,70.68C164.75,73.61,168.28,76.00,168.95,76.00C169.63,76.00,171.29,75.13,172.64,74.07C174.96,72.24,175.38,72.22,180.30,73.68C185.75,75.29,192.43,78.79,197.50,82.68C199.15,83.94,200.61,84.98,200.75,84.99C200.89,85.00,201.00,79.20,201.00,72.11ZM231.00,56.41C231.00,54.70,230.71,50.49,230.35,47.07C229.70,40.84,229.70,40.84,219.35,51.15C209.00,61.46,209.00,61.46,209.00,71.47C209.00,81.47,209.00,81.47,220.00,70.50C229.31,61.22,231.00,59.05,231.00,56.41Z" fill="#01264b" stroke="none" /></svg>