<?xml version="1.0" encoding="UTF-8" standalone="no"?>
<!-- Created with Inkscape (http://www.inkscape.org/) -->

<svg
   version="1.1"
   id="svg1"
   width="548"
   height="462.39999"
   viewBox="0 0 548 462.39999"
   sodipodi:docname="group_goal_logo.svg"
   inkscape:version="1.4 (86a8ad7, 2024-10-11)"
   xmlns:inkscape="http://www.inkscape.org/namespaces/inkscape"
   xmlns:sodipodi="http://sodipodi.sourceforge.net/DTD/sodipodi-0.dtd"
   xmlns="http://www.w3.org/2000/svg"
   xmlns:svg="http://www.w3.org/2000/svg">
  <defs
     id="defs1" />
  <sodipodi:namedview
     id="namedview1"
     pagecolor="#ffffff"
     bordercolor="#000000"
     borderopacity="0.25"
     inkscape:showpageshadow="2"
     inkscape:pageopacity="0.0"
     inkscape:pagecheckerboard="0"
     inkscape:deskcolor="#d1d1d1"
     showgrid="false"
     inkscape:zoom="2.8284271"
     inkscape:cx="409.23805"
     inkscape:cy="220.61732"
     inkscape:window-width="4300"
     inkscape:window-height="1711"
     inkscape:window-x="2391"
     inkscape:window-y="-9"
     inkscape:window-maximized="1"
     inkscape:current-layer="g1" />
  <g
     inkscape:groupmode="layer"
     inkscape:label="Image"
     id="g1">
    <circle
       style="opacity:1;fill:#67cae6;stroke-width:1.162;fill-opacity:1"
       id="path1"
       cx="273.23633"
       cy="60.922268"
       r="38.076416" />
    <circle
       style="opacity:1;fill:#c269e5;stroke-width:1.162;fill-opacity:1"
       id="circle1"
       cx="65.18679"
       cy="188.55441"
       r="38.076416" />
    <circle
       style="opacity:1;fill:#6f68e5;stroke-width:1.162;fill-opacity:1"
       id="circle2"
       cx="481.28586"
       cy="187.94519"
       r="38.076416" />
    <path
       style="opacity:1;fill:#c267e5;stroke-width:1.162;fill-opacity:1"
       d="m 277.50092,197.38814 c 35.33491,0.30461 52.39315,23.45507 52.39315,23.45507 l -59.39921,61.53149 -24.36891,-22.23663 c -11.27062,-4.87378 -17.97207,10.96601 -14.31673,15.23057 l 37.46719,38.38103 73.41133,-73.41134 c 36.55336,49.34704 -26.50118,157.17945 -117.88458,97.78024 -45.38708,-25.28274 -49.04243,-140.1212 52.69776,-140.73043 z"
       id="path4"
       sodipodi:nodetypes="ccccccccc" />
    <path
       style="opacity:1;fill:#67cae5;stroke-width:1.162;fill-opacity:1"
       d="m 356.90576,225.94697 20.03153,-19.60073 c 0,0 59.10629,80.74515 -14.8621,159.39062 -17.8776,20.03152 -130.09275,89.44678 -202.25378,-35.5398 -10.98503,-17.23142 -42.00158,-134.83585 78.83374,-174.25272 0,0 72.15656,-23.26242 123.85082,33.38587 l -19.60074,19.16996 c 0,0 -40.92461,-47.38641 -110.06568,-20.8931 -7.53875,4.73864 -104.02606,61.18441 -29.29342,157.02131 60.09457,65.91018 211.08488,9.26188 153.35963,-118.68141 z"
       id="path5"
       sodipodi:nodetypes="cccccccccc" />
    <path
       style="opacity:1;fill:#67cae6;stroke-width:1.162;fill-opacity:1"
       d="m 176.83744,169.72948 c 0,0 91.32652,-85.510919 195.5766,1.07696 0,0 -2.8001,-15.29289 -12.06199,-26.49331 0,0 -1.93854,-8.8311 4.09246,-9.26189 31.01655,-5.60021 64.83321,15.0775 64.83321,15.0775 C 382.3221,91.326523 318.99664,81.633847 318.99664,81.633847 314.04261,105.11165 253.08646,135.48203 227.88551,82.064632 159.58738,93.35656 119.32758,149.48256 119.32758,149.48256 c 0,0 29.72419,-22.61624 65.26399,-14.43132 0,0 5.38482,0.86157 3.23089,7.75414 0,0 -11.41581,10.98504 -10.98502,26.9241 z"
       id="path6"
       sodipodi:nodetypes="ccccccccccc" />
    <path
       style="opacity:1;fill:#c267e5;stroke-width:1.162;fill-opacity:1"
       d="M 110.57391,166.6224 C 128.85059,239.72912 58.180763,238.51067 58.180763,238.51067 45.99631,431.93886 229.53757,448.55089 274.45481,422.49591 60.313047,386.55177 141.64427,188.55441 165.70856,182.15757 c 0,0 -0.60922,-26.8058 9.44295,-39.29486 -8.83373,-0.60922 -30.76574,-3.35072 -64.5776,23.75969 z"
       id="path7"
       sodipodi:nodetypes="cccccc" />
    <path
       style="opacity:1;fill:#6e67e5;stroke-width:1.162;fill-opacity:1"
       d="m 372.23504,144.08116 c 0,0 13.13721,24.98215 11.57523,39.90408 104.7863,153.82872 -56.96231,246.12595 -119.71225,249.78129 203.17576,24.67351 232.72305,-138.59815 223.2801,-194.95125 -76.45744,-7.31067 -50.56548,-71.58366 -50.56548,-71.58366 0,0 -32.2888,-27.11041 -64.5776,-23.15046 z"
       id="path8"
       sodipodi:nodetypes="cccccc" />
  </g>
</svg>
